<svg xmlns="http://www.w3.org/2000/svg" xmlns:xlink="http://www.w3.org/1999/xlink" width="200" zoomAndPan="magnify" viewBox="0 0 150 74.999997" height="100" preserveAspectRatio="xMidYMid meet" version="1.0"><defs><g/><clipPath id="e53a923d0c"><rect x="0" width="141" y="0" height="55"/></clipPath></defs><g transform="matrix(1, 0, 0, 1, 6, 9)"><g clip-path="url(#e53a923d0c)"><g fill="#0077b6" fill-opacity="1"><g transform="translate(0.585235, 40.991657)"><g><path d="M 6.4375 -23.890625 L 6.4375 -14.953125 L 16.1875 -14.953125 L 16.1875 -12.078125 L 6.4375 -12.078125 L 6.4375 -2.875 L 17.328125 -2.875 L 17.328125 0 L 2.953125 0 L 2.953125 -26.765625 L 17.328125 -26.765625 L 17.328125 -23.890625 Z M 6.4375 -23.890625 "/></g></g></g><g fill="#0077b6" fill-opacity="1"><g transform="translate(20.258265, 40.991657)"><g><path d="M 5.5625 -2.875 L 15.875 -2.875 L 15.875 0 L 1.578125 0 L 1.578125 -2.875 L 11.765625 -18.171875 L 1.65625 -18.171875 L 1.65625 -21.015625 L 15.796875 -21.015625 L 15.796875 -18.171875 Z M 5.5625 -2.875 "/></g></g></g><g fill="#4a4a4a" fill-opacity="1"><g transform="translate(41.335341, 40.991657)"><g><path d="M 6.4375 -17.09375 C 7.15625 -18.351562 8.203125 -19.378906 9.578125 -20.171875 C 10.960938 -20.960938 12.535156 -21.359375 14.296875 -21.359375 C 16.191406 -21.359375 17.894531 -20.910156 19.40625 -20.015625 C 20.914062 -19.117188 22.101562 -17.859375 22.96875 -16.234375 C 23.832031 -14.609375 24.265625 -12.722656 24.265625 -10.578125 C 24.265625 -8.460938 23.832031 -6.570312 22.96875 -4.90625 C 22.101562 -3.25 20.90625 -1.957031 19.375 -1.03125 C 17.851562 -0.113281 16.160156 0.34375 14.296875 0.34375 C 12.484375 0.34375 10.894531 -0.0507812 9.53125 -0.84375 C 8.164062 -1.632812 7.132812 -2.644531 6.4375 -3.875 L 6.4375 0 L 2.953125 0 L 2.953125 -28.375 L 6.4375 -28.375 Z M 20.703125 -10.578125 C 20.703125 -12.160156 20.378906 -13.539062 19.734375 -14.71875 C 19.097656 -15.894531 18.238281 -16.789062 17.15625 -17.40625 C 16.070312 -18.019531 14.878906 -18.328125 13.578125 -18.328125 C 12.296875 -18.328125 11.109375 -18.015625 10.015625 -17.390625 C 8.929688 -16.765625 8.0625 -15.859375 7.40625 -14.671875 C 6.757812 -13.484375 6.4375 -12.109375 6.4375 -10.546875 C 6.4375 -8.960938 6.757812 -7.570312 7.40625 -6.375 C 8.0625 -5.1875 8.929688 -4.28125 10.015625 -3.65625 C 11.109375 -3.03125 12.296875 -2.71875 13.578125 -2.71875 C 14.878906 -2.71875 16.070312 -3.03125 17.15625 -3.65625 C 18.238281 -4.28125 19.097656 -5.1875 19.734375 -6.375 C 20.378906 -7.570312 20.703125 -8.972656 20.703125 -10.578125 Z M 20.703125 -10.578125 "/></g></g></g><g fill="#4a4a4a" fill-opacity="1"><g transform="translate(67.259253, 40.991657)"><g><path d="M 22.125 -11.3125 C 22.125 -10.644531 22.085938 -9.941406 22.015625 -9.203125 L 5.21875 -9.203125 C 5.34375 -7.128906 6.050781 -5.507812 7.34375 -4.34375 C 8.632812 -3.1875 10.203125 -2.609375 12.046875 -2.609375 C 13.546875 -2.609375 14.800781 -2.957031 15.8125 -3.65625 C 16.820312 -4.363281 17.53125 -5.304688 17.9375 -6.484375 L 21.703125 -6.484375 C 21.140625 -4.460938 20.015625 -2.816406 18.328125 -1.546875 C 16.640625 -0.285156 14.546875 0.34375 12.046875 0.34375 C 10.046875 0.34375 8.257812 -0.101562 6.6875 -1 C 5.113281 -1.894531 3.878906 -3.164062 2.984375 -4.8125 C 2.097656 -6.457031 1.65625 -8.367188 1.65625 -10.546875 C 1.65625 -12.710938 2.085938 -14.613281 2.953125 -16.25 C 3.816406 -17.894531 5.035156 -19.15625 6.609375 -20.03125 C 8.179688 -20.914062 9.992188 -21.359375 12.046875 -21.359375 C 14.035156 -21.359375 15.796875 -20.921875 17.328125 -20.046875 C 18.859375 -19.179688 20.039062 -17.988281 20.875 -16.46875 C 21.707031 -14.945312 22.125 -13.226562 22.125 -11.3125 Z M 18.515625 -12.046875 C 18.515625 -13.367188 18.21875 -14.507812 17.625 -15.46875 C 17.039062 -16.425781 16.242188 -17.15625 15.234375 -17.65625 C 14.234375 -18.15625 13.117188 -18.40625 11.890625 -18.40625 C 10.117188 -18.40625 8.613281 -17.84375 7.375 -16.71875 C 6.132812 -15.59375 5.425781 -14.035156 5.25 -12.046875 Z M 18.515625 -12.046875 "/></g></g></g><g fill="#4a4a4a" fill-opacity="1"><g transform="translate(91.035623, 40.991657)"><g><path d="M 6.4375 -28.375 L 6.4375 0 L 2.953125 0 L 2.953125 -28.375 Z M 6.4375 -28.375 "/></g></g></g><g fill="#4a4a4a" fill-opacity="1"><g transform="translate(100.469475, 40.991657)"><g><path d="M 7.203125 -18.140625 L 7.203125 -5.75 C 7.203125 -4.726562 7.421875 -4.003906 7.859375 -3.578125 C 8.296875 -3.160156 9.050781 -2.953125 10.125 -2.953125 L 12.6875 -2.953125 L 12.6875 0 L 9.546875 0 C 7.609375 0 6.148438 -0.445312 5.171875 -1.34375 C 4.203125 -2.238281 3.71875 -3.707031 3.71875 -5.75 L 3.71875 -18.140625 L 1 -18.140625 L 1 -21.015625 L 3.71875 -21.015625 L 3.71875 -26.296875 L 7.203125 -26.296875 L 7.203125 -21.015625 L 12.6875 -21.015625 L 12.6875 -18.140625 Z M 7.203125 -18.140625 "/></g></g></g><g fill="#4a4a4a" fill-opacity="1"><g transform="translate(114.428504, 40.991657)"><g><path d="M 1.65625 -10.578125 C 1.65625 -12.722656 2.085938 -14.609375 2.953125 -16.234375 C 3.816406 -17.859375 5.007812 -19.117188 6.53125 -20.015625 C 8.050781 -20.910156 9.75 -21.359375 11.625 -21.359375 C 13.457031 -21.359375 15.050781 -20.960938 16.40625 -20.171875 C 17.757812 -19.378906 18.769531 -18.378906 19.4375 -17.171875 L 19.4375 -21.015625 L 22.96875 -21.015625 L 22.96875 0 L 19.4375 0 L 19.4375 -3.90625 C 18.75 -2.6875 17.71875 -1.671875 16.34375 -0.859375 C 14.976562 -0.0546875 13.390625 0.34375 11.578125 0.34375 C 9.710938 0.34375 8.023438 -0.113281 6.515625 -1.03125 C 5.003906 -1.957031 3.816406 -3.25 2.953125 -4.90625 C 2.085938 -6.570312 1.65625 -8.460938 1.65625 -10.578125 Z M 19.4375 -10.546875 C 19.4375 -12.128906 19.113281 -13.507812 18.46875 -14.6875 C 17.832031 -15.863281 16.972656 -16.765625 15.890625 -17.390625 C 14.804688 -18.015625 13.613281 -18.328125 12.3125 -18.328125 C 11.007812 -18.328125 9.816406 -18.019531 8.734375 -17.40625 C 7.660156 -16.789062 6.804688 -15.894531 6.171875 -14.71875 C 5.535156 -13.539062 5.21875 -12.160156 5.21875 -10.578125 C 5.21875 -8.972656 5.535156 -7.570312 6.171875 -6.375 C 6.804688 -5.1875 7.660156 -4.28125 8.734375 -3.65625 C 9.816406 -3.03125 11.007812 -2.71875 12.3125 -2.71875 C 13.613281 -2.71875 14.804688 -3.03125 15.890625 -3.65625 C 16.972656 -4.28125 17.832031 -5.1875 18.46875 -6.375 C 19.113281 -7.570312 19.4375 -8.960938 19.4375 -10.546875 Z M 19.4375 -10.546875 "/></g></g></g></g></g></svg>